<?xml version="1.0" standalone="no"?>
<!DOCTYPE svg PUBLIC "-//W3C//DTD SVG 20010904//EN"
 "http://www.w3.org/TR/2001/REC-SVG-20010904/DTD/svg10.dtd">
<svg version="1.0" xmlns="http://www.w3.org/2000/svg"
 width="498.000000pt" height="220.000000pt" viewBox="0 0 498.000000 220.000000"
 preserveAspectRatio="xMidYMid meet">
<metadata>
Created by potrace 1.13, written by Peter Selinger 2001-2015
</metadata>
<g transform="translate(0.000000,220.000000) scale(0.100000,-0.100000)"
fill="#000000" stroke="none">
<path d="M0 1434 l0 -766 23 14 c42 28 62 38 115 57 52 19 75 13 52 -14 -8 -9
-8 -15 0 -20 16 -10 108 4 160 24 25 10 70 26 100 35 30 10 83 31 118 47 35
16 78 29 96 29 19 0 53 7 76 15 24 8 55 14 70 13 15 -1 39 5 52 14 23 15 27
15 47 1 19 -13 21 -21 16 -53 -5 -30 -3 -39 10 -44 12 -4 16 -14 13 -30 -4
-18 -1 -23 10 -18 21 8 10 -19 -13 -32 -11 -6 -27 -20 -38 -31 -18 -20 -18
-20 -13 15 4 30 3 32 -7 16 -48 -75 -91 -106 -114 -83 -14 13 -13 17 9 31 14
9 33 35 43 57 17 37 17 41 2 57 -11 10 -17 12 -17 4 0 -7 -10 -9 -30 -6 -33 7
-64 -11 -56 -33 3 -7 -3 -22 -14 -33 -20 -20 -20 -20 -20 5 0 14 -4 25 -10 25
-5 0 -10 -4 -10 -10 0 -5 -9 -10 -20 -10 -11 0 -20 -7 -20 -15 0 -8 -5 -15
-11 -15 -5 0 -7 -4 -4 -10 3 -5 -1 -10 -9 -10 -9 0 -16 -7 -16 -16 0 -14 -3
-14 -15 -4 -12 10 -15 10 -15 -1 0 -8 -12 -15 -30 -16 -58 -4 -65 -6 -87 -25
-17 -16 -25 -18 -42 -9 -12 7 -21 16 -21 21 0 6 -7 10 -15 10 -10 0 -15 -10
-15 -26 0 -23 -2 -25 -15 -14 -13 11 -18 10 -30 -7 -20 -28 -76 -36 -82 -12
-3 10 -12 17 -22 16 -13 -1 -15 -9 -13 -38 4 -34 1 -40 -36 -63 -22 -14 -53
-28 -68 -30 -14 -3 -29 -7 -32 -10 -3 -3 -11 2 -18 12 -27 35 -34 -9 -34 -230
l0 -218 274 0 c269 0 274 0 269 20 -3 11 -2 40 1 65 l7 45 93 0 c51 0 148 -3
214 -7 126 -6 141 -13 106 -47 -8 -9 -19 -29 -24 -46 l-9 -30 529 0 529 0 8
42 c5 24 13 41 18 38 11 -5 11 -12 0 -52 l-7 -28 66 0 66 0 -3 40 c-3 31 0 39
10 36 7 -3 13 -1 13 3 0 14 -29 22 -56 15 -38 -10 -57 2 -44 26 9 16 8 22 -6
27 -9 3 -20 0 -24 -7 -19 -31 -40 23 -24 64 8 21 24 20 24 -1 0 -30 17 -50 31
-36 6 6 17 9 24 7 16 -7 29 12 15 21 -5 3 -10 17 -10 31 0 14 -4 33 -10 43 -7
14 -3 24 18 43 30 28 133 98 143 98 4 0 29 -42 57 -93 50 -95 72 -175 72 -270
l0 -47 616 0 c611 0 615 0 609 20 -4 11 -2 20 4 20 6 0 11 -9 11 -20 0 -19 7
-20 170 -20 160 0 170 1 170 19 0 10 7 22 16 25 20 8 8 27 -14 24 -11 -2 -18
5 -20 20 -3 18 1 22 23 22 15 0 24 4 20 10 -3 5 -2 10 3 10 16 0 22 -13 11
-26 -7 -9 -6 -19 3 -33 10 -17 10 -25 0 -41 -6 -11 -12 -22 -12 -25 0 -3 173
-5 385 -5 350 0 420 5 369 24 -9 4 -14 13 -10 21 5 13 -16 15 -142 16 -81 1
-170 1 -199 -1 -53 -2 -163 24 -163 39 0 5 48 6 108 4 59 -3 114 -5 122 -5 35
-2 136 14 146 23 6 5 20 6 30 3 16 -6 17 -5 7 7 -18 18 -16 26 8 32 12 3 18
10 14 16 -8 14 -48 14 -62 0 -8 -8 -17 -7 -34 2 -13 7 -51 11 -87 10 -37 -1
-70 3 -78 10 -7 6 -21 9 -29 5 -9 -3 -15 0 -15 8 0 16 29 43 53 47 16 4 17 6
3 24 -14 20 -15 20 -45 -3 -28 -20 -34 -21 -68 -9 -21 7 -71 12 -110 11 -74
-1 -92 9 -50 26 31 13 63 42 71 64 6 18 7 18 25 1 24 -21 45 -15 126 33 101
61 123 81 118 102 -3 11 -9 20 -14 20 -5 0 -9 8 -9 19 0 11 -9 21 -22 25 -34
9 -38 8 -38 -12 0 -11 -9 -27 -19 -36 -18 -17 -19 -16 -26 24 -7 40 -8 41 -38
35 -18 -4 -47 -14 -65 -22 -18 -9 -35 -13 -39 -10 -10 11 17 36 74 70 66 39
70 56 6 23 -51 -26 -92 -28 -156 -7 -35 12 -40 11 -72 -14 -19 -14 -35 -32
-35 -40 0 -8 -6 -12 -14 -9 -10 4 -12 -1 -9 -18 3 -15 -3 -30 -16 -42 -19 -17
-21 -17 -27 -2 -4 10 -3 36 2 59 8 35 17 47 56 72 26 17 48 35 48 42 0 11 -30
26 -55 28 -29 3 -105 48 -137 83 -20 22 -42 42 -48 44 -6 2 -13 19 -16 38 -5
33 -28 63 -57 73 -8 3 -6 10 7 26 11 11 16 22 13 22 -4 1 -11 2 -17 3 -5 0 -9
3 -8 6 2 3 -5 16 -15 30 -9 13 -17 37 -17 53 0 16 -9 49 -19 75 -25 60 -61
180 -61 202 0 9 -9 25 -20 35 -16 15 -22 16 -35 5 -14 -12 -14 -15 3 -34 16
-18 33 -50 34 -66 0 -3 4 -13 9 -22 5 -10 13 -38 18 -63 6 -35 5 -45 -5 -45
-7 0 -20 -7 -28 -16 -9 -8 -16 -11 -16 -5 0 6 -7 11 -15 11 -8 0 -15 -4 -15
-9 0 -17 -52 -42 -93 -45 -23 -2 -50 -7 -60 -11 -13 -6 -16 -4 -11 9 7 19 -7
21 -24 4 -9 -9 -12 -9 -12 0 0 7 7 15 15 18 17 7 21 44 5 44 -5 0 -10 -4 -10
-10 0 -5 -9 -10 -19 -10 -11 0 -23 5 -26 10 -3 6 -17 10 -31 10 -27 0 -32 17
-8 27 10 3 20 0 25 -9 11 -19 59 -12 59 9 0 8 -10 23 -22 33 -22 18 -22 18 -4
39 15 17 16 23 6 36 -23 28 -40 18 -40 -26 0 -55 -24 -47 -28 9 -3 39 -5 41
-23 29 -17 -10 -22 -9 -30 6 -18 30 -30 19 -23 -23 l6 -39 -53 2 c-49 2 -53 0
-60 -23 -4 -14 -7 -19 -8 -12 -2 26 -21 10 -21 -18 0 -16 5 -30 11 -30 5 0 8
-4 5 -9 -3 -5 -15 -7 -26 -4 -14 4 -20 0 -20 -11 0 -9 -4 -16 -10 -16 -5 0
-10 7 -10 15 0 21 -20 19 -20 -2 -1 -16 -2 -16 -15 1 -14 18 -20 15 -16 -7 1
-5 -8 -6 -19 -2 -11 4 -20 2 -20 -4 0 -6 7 -11 15 -11 8 0 15 -5 15 -10 0 -6
3 -9 8 -9 19 3 32 -2 32 -12 0 -8 -5 -8 -15 1 -12 10 -15 10 -15 -1 0 -12 -2
-12 -9 0 -7 10 -22 12 -65 7 -57 -8 -62 -4 -50 28 8 21 24 21 24 0 0 -8 4 -13
10 -9 15 9 0 35 -20 35 -10 0 -25 -7 -34 -15 -8 -8 -22 -15 -30 -15 -23 0 -20
27 3 33 14 3 18 11 14 26 -4 15 -1 21 11 21 10 0 14 -4 11 -10 -9 -15 4 -30
21 -23 12 4 13 8 3 13 -7 5 -13 34 -14 71 l-3 63 -46 -3 c-33 -2 -46 1 -46 11
0 7 -5 5 -12 -6 -6 -11 -11 -32 -10 -48 0 -15 -4 -28 -10 -28 -5 0 -7 -7 -4
-16 5 -13 1 -15 -19 -12 -27 6 -30 1 -16 -21 5 -8 16 -11 30 -6 14 4 21 2 21
-6 0 -7 11 -2 25 11 14 13 28 21 31 18 15 -16 -59 -103 -81 -94 -7 2 -21 -4
-31 -15 -9 -10 -22 -19 -28 -19 -7 0 -32 -20 -56 -45 -26 -26 -51 -43 -60 -40
-46 13 -288 1 -304 -15 -7 -7 -5 -10 3 -10 11 0 11 -3 1 -15 -7 -8 -19 -15
-27 -15 -12 0 -14 7 -9 31 5 25 3 30 -12 26 -9 -2 -30 3 -47 11 -45 23 -176
62 -207 62 -15 0 -30 5 -33 10 -3 6 -17 10 -31 10 -13 0 -43 14 -66 31 -32 22
-49 28 -68 23 -108 -28 -212 -19 -189 17 4 8 6 23 3 34 -4 13 -2 16 4 7 4 -7
17 -11 28 -9 22 3 129 71 140 88 9 15 -2 23 -18 13 -7 -5 -21 -7 -31 -6 -10 2
-24 -2 -32 -8 -9 -8 -15 -8 -20 0 -5 8 -11 8 -19 1 -8 -7 -24 -7 -44 -2 -19 6
-34 6 -37 0 -4 -5 -16 -9 -28 -9 -13 0 -32 -7 -43 -15 -20 -13 -22 -12 -33 24
-16 54 -14 74 5 67 18 -7 66 22 58 35 -8 14 -40 11 -54 -6 -16 -19 -30 -10
-30 19 0 24 -61 95 -115 134 -25 18 -28 23 -15 32 8 6 26 13 40 17 14 3 41 16
60 28 57 36 248 128 370 180 36 16 72 36 80 45 9 9 28 25 43 34 47 32 32 45
-25 21 -14 -5 -16 -1 -14 29 3 35 -14 50 -29 26 -11 -18 -23 -11 -18 10 4 16
0 20 -21 20 -16 0 -26 5 -26 15 0 13 -11 18 -40 17 -3 0 -16 -3 -29 -7 -20 -6
-23 -4 -17 10 4 13 2 16 -9 11 -11 -4 -15 1 -15 17 -1 20 -2 20 -16 -5 -19
-36 -27 -35 -22 2 5 34 1 37 -18 13 -22 -29 -36 3 -28 68 4 36 2 59 -5 63 -7
5 -11 -2 -11 -17 0 -14 -7 -30 -16 -38 -14 -11 -15 -9 -9 24 l7 37 -746 0
-746 0 0 -766z m1498 620 c32 -22 52 -67 52 -115 0 -34 -3 -40 -17 -35 -9 4
-20 1 -25 -6 -6 -10 -8 -8 -8 5 0 12 -8 17 -30 17 -17 0 -42 7 -55 16 -20 13
-28 14 -40 4 -17 -14 -74 -20 -81 -8 -10 16 -22 8 -26 -17 -3 -14 -1 -28 3
-31 12 -7 11 -24 -1 -24 -5 0 -17 9 -27 19 -13 14 -23 17 -33 11 -20 -13 -33
-13 -25 0 3 6 0 10 -8 10 -11 0 -13 7 -10 21 4 16 2 20 -8 17 -8 -3 -14 -15
-13 -27 1 -22 -10 -28 -21 -11 -10 16 -55 12 -55 -4 0 -8 -3 -21 -6 -29 -3
-10 1 -17 13 -19 11 -3 6 -6 -14 -9 -23 -4 -33 -2 -33 7 0 15 -60 30 -69 18
-3 -5 -30 -24 -60 -42 -53 -33 -75 -36 -52 -8 7 8 11 23 9 33 -3 15 -7 13 -19
-11 -9 -16 -19 -24 -22 -19 -11 18 22 111 45 127 33 24 133 52 223 64 44 6
107 22 140 36 49 21 77 25 155 26 71 0 101 -4 118 -16z m-380 -294 c15 -15 22
-33 22 -59 0 -45 -19 -65 -55 -59 -14 3 -25 1 -25 -3 0 -15 -27 -10 -41 7 -35
43 -119 32 -119 -14 0 -21 -2 -23 -15 -12 -13 11 -20 11 -39 0 -13 -7 -29 -9
-35 -6 -6 4 -20 -3 -31 -14 -16 -16 -25 -18 -34 -11 -9 7 -16 7 -24 -1 -8 -8
-15 -8 -25 0 -11 9 -18 8 -31 -7 -10 -11 -23 -18 -30 -15 -7 3 -18 -7 -24 -21
-14 -31 -36 -34 -27 -4 4 13 2 25 -5 29 -16 10 -5 41 29 80 22 26 46 37 132
61 263 75 339 84 377 49z m-2 -378 c49 -49 94 -120 94 -150 0 -21 -4 -24 -30
-20 -19 3 -31 0 -34 -9 -4 -9 -14 -11 -31 -7 -15 4 -25 2 -25 -5 0 -6 -6 -11
-12 -11 -9 0 -12 17 -10 60 3 47 -1 69 -20 106 -12 26 -28 49 -35 51 -20 8
-15 21 10 25 36 6 53 -2 93 -40z m-741 -2 c4 -6 15 -8 25 -5 32 10 86 -21 119
-68 30 -44 38 -67 25 -67 -4 0 -13 8 -21 18 -13 15 -13 15 -3 -5 10 -22 9 -24
-6 -22 -4 0 -10 -4 -14 -10 -4 -8 -15 -7 -37 4 -16 8 -42 16 -57 17 -14 1 -26
8 -26 15 0 7 -6 10 -14 7 -8 -3 -17 -1 -21 5 -3 6 -14 11 -25 11 -32 0 -42 66
-14 94 18 18 60 21 69 6z m473 -76 c21 -10 32 -23 32 -36 0 -24 68 -98 90 -98
15 -1 50 -23 50 -32 0 -3 -11 -3 -25 -1 -19 4 -27 0 -37 -22 -11 -24 -13 -25
-24 -10 -11 15 -13 15 -24 -4 -6 -12 -16 -21 -23 -19 -23 4 -57 -14 -57 -30
-1 -16 -2 -16 -14 1 -16 21 -30 22 -46 2 -15 -19 -68 -45 -90 -45 -9 0 -20 -3
-24 -7 -4 -5 -20 -9 -34 -9 -29 -1 -80 -18 -125 -41 -17 -9 -36 -11 -50 -7
-12 4 -30 7 -39 7 -10 0 -37 -2 -60 -3 l-43 -2 33 -8 c30 -7 61 -33 62 -52 0
-12 -34 -41 -67 -54 -38 -16 -97 -19 -88 -4 3 6 -3 10 -14 10 -11 0 -22 -4
-26 -10 -11 -18 -35 2 -35 31 0 22 -4 27 -16 22 -13 -5 -15 -2 -9 18 26 81
165 206 263 236 31 9 80 32 108 50 28 18 55 33 61 33 5 0 30 14 56 30 26 17
55 30 65 30 9 1 33 9 52 20 43 24 58 24 98 4z m707 -260 c11 -3 29 -23 39 -45
11 -22 24 -43 29 -46 17 -11 161 -4 263 13 54 9 113 15 129 14 17 -1 54 -3 84
-4 30 0 56 -5 58 -11 4 -14 -106 -66 -139 -65 -15 0 -30 -5 -34 -11 -3 -6 -16
-8 -28 -5 -15 4 -26 -1 -34 -14 -14 -23 -45 -26 -65 -6 -10 10 -34 13 -90 11
-42 -2 -80 -6 -86 -9 -5 -3 -11 -1 -13 5 -2 6 -20 11 -41 11 -25 0 -37 5 -37
14 0 8 -5 14 -11 14 -7 0 -9 -10 -7 -25 7 -37 -9 -31 -17 6 -5 22 -3 34 6 40
7 4 10 11 6 15 -3 4 -13 1 -21 -5 -9 -7 -17 -8 -20 -2 -3 5 0 12 6 14 8 3 6 6
-4 6 -10 1 -18 -3 -18 -8 0 -4 -11 -6 -25 -3 -20 3 -24 1 -19 -12 3 -9 9 -16
13 -16 4 0 18 -14 31 -32 19 -26 20 -30 5 -24 -15 5 -123 -15 -165 -31 -8 -4
-30 -8 -48 -10 -18 -2 -52 -10 -75 -18 -23 -8 -49 -15 -58 -15 -23 0 -79 54
-79 77 0 11 -13 46 -28 77 -30 58 -30 67 -2 41 15 -14 23 -13 74 10 l56 25 40
-26 c37 -25 41 -25 82 -12 30 10 44 21 46 36 3 22 2 21 147 30 17 1 39 -1 50
-4z m1639 -316 c-4 -24 -10 -47 -14 -53 -10 -13 0 -75 11 -75 5 0 17 8 27 18
10 10 26 21 35 25 9 3 17 14 17 23 0 10 3 15 6 11 4 -3 15 4 26 16 l19 22 -5
-27 c-4 -16 -2 -28 4 -28 5 0 10 5 10 10 0 6 5 10 10 10 33 0 -43 -99 -77
-101 -51 -1 -85 -8 -97 -19 -33 -26 -142 69 -151 131 -3 19 -2 27 1 19 4 -8
20 -34 35 -56 21 -30 35 -41 54 -41 31 0 37 9 40 59 1 21 10 47 19 57 9 9 16
23 16 29 0 7 5 12 10 12 6 0 8 -16 4 -42z m-2043 -68 c12 -7 25 -7 37 -1 10 5
36 5 67 -1 62 -11 59 -11 185 -8 101 3 195 -13 185 -31 -3 -4 -47 -17 -98 -29
-118 -27 -192 -48 -241 -68 -38 -16 -39 -16 -59 8 -13 17 -21 21 -24 13 -7
-21 -25 -15 -19 5 5 13 -1 22 -19 30 l-25 12 13 -33 c14 -32 14 -48 3 -85 -5
-14 -1 -21 11 -24 15 -4 17 -14 14 -63 -1 -32 -6 -53 -10 -46 -4 7 -14 11 -22
9 -11 -2 -13 8 -11 48 4 52 -18 154 -25 122 -5 -20 -18 -24 -28 -8 -12 20 -25
9 -25 -22 -1 -18 -7 -44 -15 -58 -14 -24 -14 -24 -15 -3 0 28 -17 39 -23 16
-4 -14 -5 -13 -6 5 -1 22 -21 32 -21 11 0 -7 -15 -10 -41 -7 -34 3 -44 0 -56
-19 -8 -12 -20 -20 -27 -17 -8 3 -16 -5 -19 -18 -6 -21 -7 -22 -20 -5 -12 18
-14 17 -31 -2 -11 -12 -27 -21 -36 -21 -10 0 -34 -7 -53 -15 -20 -8 -56 -17
-79 -19 -24 -3 -45 -6 -48 -7 -3 -1 -9 -1 -14 0 -4 1 -13 -3 -20 -8 -6 -5 -23
-8 -39 -6 -15 2 -41 -2 -58 -8 -27 -11 -32 -10 -45 7 -12 17 -14 18 -14 3 0
-24 -17 -21 -31 5 -10 18 -13 19 -23 7 -19 -25 -109 -52 -181 -53 -27 -1 -30
2 -33 35 -4 47 10 58 102 73 43 8 87 23 106 36 17 12 74 35 128 50 53 16 135
40 182 55 47 15 103 32 125 39 22 6 54 19 70 27 17 9 44 19 60 22 17 3 38 9
48 12 11 5 17 2 17 -8 0 -16 57 -30 66 -15 3 4 17 8 31 8 22 0 24 3 19 26 -6
23 -5 24 14 14 16 -9 22 -8 26 5 7 18 18 19 45 5z"/>
<path d="M1641 2174 c23 -25 27 -25 100 -19 66 6 85 4 149 -19 63 -22 82 -34
127 -83 50 -56 53 -57 68 -39 8 11 18 16 22 12 4 -4 1 -11 -6 -15 -21 -13 -9
-25 106 -103 118 -80 160 -119 208 -194 35 -55 71 -84 122 -102 30 -10 34 -9
47 15 13 26 14 26 24 6 6 -11 8 -24 4 -29 -4 -5 5 1 19 14 24 21 30 22 50 10
13 -7 33 -23 45 -36 18 -20 36 -25 120 -32 100 -10 162 -8 182 4 11 6 71 0
107 -12 11 -3 24 -6 29 -7 6 0 11 -19 12 -43 2 -48 21 -79 38 -62 5 5 18 10
29 10 11 0 17 5 14 13 -2 6 -17 11 -34 11 -24 -1 -29 2 -29 20 1 27 19 38 51
30 17 -4 27 -15 31 -33 10 -50 24 -72 41 -69 25 5 28 29 4 35 -25 6 -23 26 3
31 11 2 19 -4 23 -17 9 -33 39 -25 90 25 27 25 75 64 108 86 l60 40 164 -17
c124 -14 193 -16 285 -10 135 9 117 9 388 2 217 -5 268 -16 333 -70 83 -68
159 -257 177 -442 9 -84 8 -164 -2 -340 -21 -363 -22 -487 -2 -501 16 -12 15
-14 -3 -28 -20 -16 -10 -21 19 -10 14 6 16 103 16 1000 l0 994 -1403 0 -1404
0 -13 -24 c-7 -14 -19 -27 -27 -30 -12 -5 -13 0 -8 24 l7 30 -258 0 -257 0 24
-26z"/>
<path d="M2090 1688 c0 -6 6 -19 14 -27 16 -20 28 -89 16 -96 -5 -3 -30 0 -55
6 -35 9 -49 18 -56 38 -9 22 -7 28 10 40 12 7 21 17 21 22 0 15 -42 4 -55 -14
-7 -9 -22 -17 -34 -17 -11 0 -21 -4 -21 -10 0 -5 14 -10 30 -10 23 0 30 -5 30
-19 0 -25 -22 -33 -104 -37 -65 -2 -93 -15 -80 -36 9 -14 24 -8 24 10 1 16 1
16 11 0 5 -10 17 -18 24 -18 8 0 15 -4 15 -10 0 -5 5 -10 10 -10 6 0 10 7 10
15 0 17 16 20 26 4 3 -6 -1 -18 -9 -27 -21 -20 -148 -28 -180 -10 -19 11 -125
13 -135 3 -7 -7 9 -45 19 -45 5 0 27 -11 49 -25 76 -48 179 -75 300 -79 77 -2
115 1 127 9 10 7 24 10 33 7 13 -5 13 -3 1 11 -18 22 -10 38 29 61 18 10 30
14 26 7 -4 -6 -2 -11 3 -11 6 0 11 7 11 15 0 9 9 15 25 15 17 0 25 6 25 17 0
13 3 14 12 5 16 -16 28 -15 28 3 0 17 17 20 22 4 2 -6 16 -11 31 -11 16 0 27
-6 27 -14 0 -8 6 -11 15 -8 8 4 15 2 15 -4 0 -6 8 -8 19 -5 14 3 20 -2 25 -22
5 -20 12 -26 26 -22 13 3 17 0 13 -9 -3 -8 5 -16 23 -20 15 -4 43 -18 62 -30
26 -18 38 -21 53 -13 10 5 19 13 19 17 -1 20 -32 44 -64 49 -26 4 -36 11 -36
24 0 11 -6 19 -14 19 -7 0 -21 11 -30 25 -9 14 -21 23 -25 21 -10 -7 -42 29
-61 68 -17 32 -45 54 -78 59 -24 3 -42 17 -24 17 7 0 12 5 12 10 0 16 -18 12
-40 -10 -11 -11 -23 -19 -27 -19 -25 4 -43 -3 -43 -17 0 -28 -22 -9 -35 30
-17 50 -85 109 -85 74z"/>
<path d="M1839 1232 c-49 -33 -52 -37 -29 -40 41 -4 112 -25 149 -43 19 -9 40
-15 47 -12 6 2 14 -2 17 -10 3 -9 14 -13 30 -10 18 4 33 -4 59 -31 30 -30 37
-34 42 -20 5 12 10 13 19 6 14 -12 13 -12 135 -12 45 0 91 -4 101 -10 22 -11
81 5 94 27 4 7 13 13 20 13 8 0 7 -3 -2 -9 -10 -7 -6 -9 13 -8 l27 2 -22 18
c-24 20 -35 21 -44 7 -5 -8 -11 -7 -21 1 -8 6 -23 9 -34 6 -11 -3 -22 -2 -25
2 -2 4 -25 7 -50 6 -25 -1 -48 2 -51 6 -3 5 -16 9 -29 9 -13 0 -26 6 -28 13
-4 9 -7 9 -15 -1 -7 -11 -16 -9 -46 7 -45 26 -50 26 -43 1 3 -11 1 -20 -4 -20
-5 0 -9 4 -9 10 0 19 -35 50 -57 50 -13 0 -23 6 -23 13 0 9 -3 8 -9 -2 -6 -9
-14 -10 -22 -5 -30 19 -78 31 -82 21 -5 -16 -27 2 -27 23 0 32 -26 29 -81 -8z"/>
</g>
</svg>
